<?xml version="1.0" encoding="utf-8"?>
<!-- Generator: Adobe Illustrator 23.0.3, SVG Export Plug-In . SVG Version: 6.00 Build 0)  -->
<svg version="1.1" id="s7" xmlns="http://www.w3.org/2000/svg" xmlns:xlink="http://www.w3.org/1999/xlink" x="0px" y="0px"
	 viewBox="0 0 400 300" style="enable-background:new 0 0 400 300;" xml:space="preserve">
<style type="text/css">
	.st0{fill:#747679;}
	.st1{fill:#BED600;}
	.st2{fill:#FFFFFF;}
</style>
<path id="text" class="st0" d="M202.1,119.3h9.8v8.8h-9.8V119.3z M202.1,133.3h9.8v37.1h-9.8V133.3z M226.9,139.2h0.2
	c2.2-4.2,4.8-6.4,9.1-6.4c1.1,0,1.7,0.1,2.3,0.3v8.6h-0.2c-6.4-0.6-11.1,2.7-11.1,10.5v18.1h-9.8v-37.1h9.5V139.2z M257.7,119.3h9.8
	v8.8h-9.8V119.3z M257.7,133.3h9.8v37.1h-9.8V133.3z M282.6,138.3h0.2c2.5-4,5.9-6.1,11-6.1c7.7,0,12.8,5.8,12.8,13.9v24.2h-9.8
	v-22.8c0-4-2.3-6.8-6.4-6.8c-4.3,0-7.5,3.5-7.5,8.5v21H273v-37.1h9.6L282.6,138.3L282.6,138.3z M310.6,151.7
	c0-11,7.4-19.5,18.3-19.5c11.9,0,18.3,9.1,18.3,22.3h-26.9c0.7,5.7,3.9,9.2,9.5,9.2c3.8,0,6.1-1.7,7.2-4.6h9.7
	c-1.4,6.6-7.2,12.1-16.8,12.1C317.6,171.4,310.6,162.8,310.6,151.7z M320.5,147.8h16.5c-0.3-4.7-3.4-7.9-7.9-7.9
	C323.9,139.8,321.3,142.9,320.5,147.8z M349.5,158.3h9.1c0.7,4.3,3.7,6.1,8.1,6.1c4.3,0,6.8-1.7,6.8-4.3c0-3.5-4.7-3.9-9.8-4.9
	c-6.6-1.3-13.2-3.1-13.2-11.2c0-8,6.6-11.9,15.1-11.9c9.8,0,15.2,4.8,15.9,12.3h-8.9c-0.4-4-3-5.4-7.2-5.4c-3.8,0-6.4,1.4-6.4,4.1
	c0,3.2,4.9,3.5,10.2,4.6c6.2,1.3,13.1,3,13.1,11.7c0,7.4-6.4,11.9-15.6,11.9C356,171.4,350,166.2,349.5,158.3z M178.9,119.3h-11.4
	l-20.7,51h11.7l3.8-10.5h21.1l3.9,10.5h11.8L178.9,119.3z M165.2,151.2l7.6-21.7l7.8,21.7L165.2,151.2L165.2,151.2z M242.4,119.3
	h9.8v51h-9.8V119.3z"/>
<path id="yellow" class="st1" d="M134,149.9c0,32.4-26.2,58.6-58.6,58.6c-32.4,0-58.7-26.2-58.7-58.6S43,91.3,75.4,91.3
	C107.8,91.3,134,117.5,134,149.9"/>
<path id="white" class="st2" d="M71.1,119.3c-9.2,0-15.2,0.5-19.6,2.1c-7.3,2.8-12.3,8.8-12.3,16.6c0,6.5,3,11.2,11.8,16.7
	c9.4,5.7,11.2,7.6,11.2,11c0,3.7-3.7,8-13.1,8c-3.3,0-8.3-0.5-11.4-1.2l-1.5-0.4c-0.8,2.3-2.8,7.6-3.3,9.6l1.5,0.4
	c2.9,0.9,9.6,1.6,14.5,1.6c16.1,0,25.8-9.8,25.8-20c0-6.3-2.8-11-12.5-17c-4.8-3-7.3-4.9-8.8-6.4c-1.2-1.6-1.3-2.7-1.3-3.9
	c0-1.2,0.3-2.5,1-3.5c0.8-1.2,2.4-2,4.4-2.6c2.1-0.7,6.1-0.7,12.2-0.7h5.7l4.1-10.2L71.1,119.3L71.1,119.3z M114.3,119.3H85.6
	l-4.1,10.2H91c6.4,0,7.6-0.1,9.2-0.1c-2.3,5.3-16.3,41-16.3,41h11.8c0,0,17.7-44.4,19.6-49C115.9,120.3,115.6,119.3,114.3,119.3z"/>
</svg>
