<svg xmlns="http://www.w3.org/2000/svg" width="60" height="60" fill="none" style=""><rect id="backgroundrect" width="100%" height="100%" x="0" y="0" fill="none" stroke="none"/>


<mask id="mask0" mask-type="alpha" maskUnits="userSpaceOnUse" x="11" y="10" width="60" height="60">
<path fill-rule="evenodd" clip-rule="evenodd" d="M41 70C57.5685 70 71 56.5685 71 40C71 23.4315 57.5685 10 41 10C24.4315 10 11 23.4315 11 40C11 56.5685 24.4315 70 41 70Z" fill="white" id="svg_1"/>
</mask>


<mask id="mask1" mask-type="alpha" maskUnits="userSpaceOnUse" x="16" y="13" width="50" height="51">
<path fill-rule="evenodd" clip-rule="evenodd" d="M51.1946 29.0278C51.3946 28.9123 51.6151 28.8406 51.8456 28.8261C52.8621 28.7621 55.798 28.678 56.4347 29.7809C57.0715 30.8838 55.5298 33.3837 54.966 34.2314C54.8383 34.4235 54.666 34.5784 54.4662 34.6938L48.3904 38.2016L49.2343 55.302C49.2461 55.5414 49.125 55.7679 48.9193 55.8911L47.67 56.6393C47.5055 56.7379 47.3057 56.7586 47.1244 56.696L46.1776 56.369C46.019 56.3143 45.8877 56.2002 45.8114 56.0508L39.3534 43.4192L32.9843 47.0964L32.2974 51.7678C32.2498 52.0912 31.9693 52.3288 31.6426 52.3226L31.1446 52.3132C30.8927 52.3084 30.6663 52.1583 30.5638 51.9282L28.7741 47.9122C27.5439 47.9515 26.3891 47.8306 26.0792 47.294C25.7697 46.7579 26.2429 45.7021 26.893 44.6611L24.3295 41.1301C24.1815 40.9263 24.1648 40.6552 24.2866 40.4347L24.5274 39.9987C24.6854 39.7126 25.0314 39.5886 25.3352 39.709L29.6974 41.4392L36.0779 37.7555L28.4192 25.9267C28.328 25.7858 28.2948 25.6152 28.3267 25.4504L28.517 24.4669C28.5534 24.2786 28.6712 24.116 28.8389 24.0228L30.1115 23.315C30.321 23.1984 30.5777 23.2068 30.7791 23.3368L45.0768 32.5599L51.1946 29.0278Z" fill="white" id="svg_2"/>
</mask>

<defs>
<filter id="filter0_d" x="8" y="23" width="66" height="66" filterUnits="userSpaceOnUse" color-interpolation-filters="sRGB">
<feFlood flood-opacity="0" result="BackgroundImageFix"/>
<feColorMatrix in="SourceAlpha" type="matrix" values="0 0 0 0 0 0 0 0 0 0 0 0 0 0 0 0 0 0 127 0"/>
<feOffset dy="8"/>
<feGaussianBlur stdDeviation="5.5"/>
<feColorMatrix type="matrix" values="0 0 0 0 0.215686 0 0 0 0 0.407843 0 0 0 0 0.556863 0 0 0 0.25 0"/>
<feBlend mode="normal" in2="BackgroundImageFix" result="effect1_dropShadow"/>
<feBlend mode="normal" in="SourceGraphic" in2="effect1_dropShadow" result="shape"/>
</filter>
<filter id="filter1_d" x="0" y="0" width="82" height="82" filterUnits="userSpaceOnUse" color-interpolation-filters="sRGB">
<feFlood flood-opacity="0" result="BackgroundImageFix"/>
<feColorMatrix in="SourceAlpha" type="matrix" values="0 0 0 0 0 0 0 0 0 0 0 0 0 0 0 0 0 0 127 0"/>
<feOffset dy="1"/>
<feGaussianBlur stdDeviation="5.5"/>
<feColorMatrix type="matrix" values="0 0 0 0 0.215686 0 0 0 0 0.407843 0 0 0 0 0.556863 0 0 0 0.3 0"/>
<feBlend mode="normal" in2="BackgroundImageFix" result="effect1_dropShadow"/>
<feBlend mode="normal" in="SourceGraphic" in2="effect1_dropShadow" result="shape"/>
</filter>
</defs>
<g class="currentLayer" style=""><title>Layer 1</title><g filter="url(#filter0_d)" id="svg_3" class="">
<path fill-rule="evenodd" clip-rule="evenodd" d="M30,60 C42.1503,60 52,50.1503 52,38 C52,25.8497 42.1503,16 30,16 C17.8497,16 8,25.8497 8,38 C8,50.1503 17.8497,60 30,60 z" fill="black" fill-opacity="0.01" id="svg_4"/>
</g><g filter="url(#filter1_d)" id="svg_5" class="">
<path fill-rule="evenodd" clip-rule="evenodd" d="M30,60 C46.5685,60 60,46.5685 60,30 C60,13.4315 46.5685,0 30,0 C13.4315,0 0,13.4315 0,30 C0,46.5685 13.4315,60 30,60 z" fill="#2196F3" id="svg_6"/>
<path d="M58,30 C58,45.464 45.464,58 30,58 C14.536000000000001,58 2,45.464 2,30 C2,14.536000000000001 14.536000000000001,2 30,2 C45.464,2 58,14.536000000000001 58,30 z" stroke="#42A5F5" stroke-width="4" id="svg_7"/>
</g><g mask="url(#mask0)" id="svg_8" class="">
<path d="M2.7140000000000004,22.875 H56.536 " stroke="#42A5F5" stroke-width="4" stroke-linecap="square" id="svg_9"/>
<path d="M2.7140000000000004,38.625 H56.536 " stroke="#42A5F5" stroke-width="4" stroke-linecap="square" id="svg_10"/>
<path d="M29.25,4.5 C29.25,4.5 19.2878,16.0775 19.5035,30.75 C19.7191,45.4225 29.25,55.5 29.25,55.5 " stroke="#42A5F5" stroke-width="4" stroke-linecap="round" stroke-linejoin="round" id="svg_11"/>
<path d="M30,4.5 C30,4.5 39.9622,16.0775 39.7465,30.75 C39.5309,45.4225 30,55.5 30,55.5 " stroke="#42A5F5" stroke-width="4" stroke-linecap="round" stroke-linejoin="round" id="svg_12"/>
</g><path fill-rule="evenodd" clip-rule="evenodd" d="M40.1946,19.0278 C40.3946,18.9123 40.6151,18.8406 40.8456,18.8261 C41.8621,18.7621 44.798,18.678 45.4347,19.7809 C46.0715,20.8838 44.5298,23.383699999999997 43.966,24.2314 C43.8383,24.423499999999997 43.666,24.578400000000002 43.4662,24.693800000000003 L37.3904,28.2016 L38.2343,45.302 C38.2461,45.5414 38.125,45.7679 37.9193,45.8911 L36.67,46.6393 C36.5055,46.7379 36.3057,46.7586 36.1244,46.696 L35.1776,46.369 C35.019,46.3143 34.8877,46.2002 34.8114,46.0508 L28.3534,33.419200000000004 L21.984299999999998,37.0964 L21.297400000000003,41.7678 C21.2498,42.0912 20.9693,42.3288 20.6426,42.3226 L20.1446,42.3132 C19.8927,42.3084 19.6663,42.1583 19.5638,41.9282 L17.7741,37.9122 C16.5439,37.9515 15.3891,37.8306 15.0792,37.294 C14.7697,36.7579 15.242899999999999,35.7021 15.893,34.6611 L13.3295,31.1301 C13.1815,30.926299999999998 13.1648,30.6552 13.2866,30.4347 L13.5274,29.9987 C13.685400000000001,29.712600000000002 14.031400000000001,29.5886 14.3352,29.709000000000003 L18.697400000000002,31.4392 L25.0779,27.755499999999998 L17.4192,15.9267 C17.328,15.785800000000002 17.2948,15.615200000000002 17.3267,15.450399999999998 L17.517,14.466899999999999 C17.5534,14.2786 17.6712,14.116 17.8389,14.0228 L19.1115,13.315000000000001 C19.321,13.1984 19.5777,13.206800000000001 19.7791,13.3368 L34.0768,22.5599 L40.1946,19.0278 z" fill="white" id="svg_13" class=""/><g mask="url(#mask1)" id="svg_14" class="">
<rect x="34.5359992980957" y="20.783899307250977" width="1.3085299730300903" height="12.40839958190918" transform="rotate(60 34.5359992980957,20.78389930725098) " fill="#EBECF2" id="svg_15"/>
<path fill-rule="evenodd" clip-rule="evenodd" d="M37.9193,45.8911 C38.125,45.7679 38.246,45.5415 38.2342,45.302 L37.3628,27.6426 L28.126399999999997,32.9752 L34.8113,46.0508 C34.8877,46.2002 35.0189,46.3143 35.1775,46.369 L36.1244,46.696 C36.3057,46.7587 36.5054,46.7379 36.67,46.6393 L37.9193,45.8911 z" fill="#DEE1E3" id="svg_16"/>
<path opacity="0.4" fill-rule="evenodd" clip-rule="evenodd" d="M17.8366,37.8013 L17.7476,37.8527 L19.5638,41.9282 C19.6664,42.1584 19.8928,42.3084 20.1447,42.3132 L20.6426,42.3226 C20.9694,42.3288 21.2498,42.0912 21.297400000000003,41.7678 L22.023000000000003,36.8334 L21.560000000000002,37.1007 C21.4167,37.1834 21.2626,37.2452 21.101100000000002,37.2813 C20.551,37.4041 19.1548,37.695100000000004 17.8366,37.8013 z" fill="#DEE1E3" id="svg_17"/>
<path fill-rule="evenodd" clip-rule="evenodd" d="M28.248199999999997,33.2134 L37.3776,27.9426 L37.4768,29.953899999999997 L29.9559,36.5538 L28.248199999999997,33.2134 z" fill="#C5C6CC" id="svg_18"/>
<path fill-rule="evenodd" clip-rule="evenodd" d="M46.4823,22.952399999999997 L16.691300000000002,40.1523 C16.691300000000002,40.1523 15.8123,38.5636 15.0793,37.2939 C15.0704,37.2786 15.062000000000001,37.263 15.054099999999998,37.2473 C16.4056,37.345 19.1269,37.2351 21.7661,35.7114 L42.3906,23.803800000000003 C44.6822,22.4807 45.2435,20.7674 45.5526,20.0309 C46.0312,21.316 46.4823,22.952399999999997 46.4823,22.952399999999997 z" fill="#DEE1E3" id="svg_19"/>
</g></g></svg>